<svg xmlns="http://www.w3.org/2000/svg" width="96" height="96" viewBox="0 0 96 96" shape-rendering="crispEdges">
  <rect width="96" height="96" fill="none"/>
  <g opacity="0.24">
    <g fill="#5b4632">
      <rect x="20" y="34" width="34" height="22"/>
      <rect x="24" y="56" width="26" height="8"/>
      <rect x="54" y="40" width="10" height="12"/>
      <rect x="60" y="44" width="6" height="8"/>
    </g>
    <g fill="#fff4e4">
      <rect x="24" y="38" width="26" height="4"/>
      <rect x="58" y="44" width="4" height="4"/>
    </g>
    <g fill="#f1b84b">
      <rect x="26" y="28" width="4" height="6"/>
      <rect x="36" y="24" width="4" height="8"/>
      <rect x="46" y="28" width="4" height="6"/>
    </g>
  </g>
  <g opacity="0.16">
    <g fill="#8f6a2f">
      <rect x="64" y="60" width="18" height="12"/>
      <rect x="68" y="72" width="10" height="5"/>
      <rect x="82" y="64" width="5" height="7"/>
    </g>
    <g fill="#58c9bf">
      <rect x="66" y="55" width="4" height="5"/>
      <rect x="74" y="52" width="4" height="7"/>
    </g>
  </g>
</svg>
